<?xml version="1.0" standalone="no"?>
<!DOCTYPE svg PUBLIC "-//W3C//DTD SVG 20010904//EN"
 "http://www.w3.org/TR/2001/REC-SVG-20010904/DTD/svg10.dtd">
<svg version="1.0" xmlns="http://www.w3.org/2000/svg"
 width="1152.000000pt" height="1152.000000pt" viewBox="0 0 1152.000000 1152.000000"
 preserveAspectRatio="xMidYMid meet">
<metadata>
Created by potrace 1.14, written by Peter Selinger 2001-2017
</metadata>
<g transform="translate(0.000000,1152.000000) scale(0.100000,-0.100000)"
fill="#000000" stroke="none">
<path d="M5600 10219 c-14 -11 -37 -30 -51 -42 -15 -12 -41 -33 -59 -47 -18
-14 -37 -30 -44 -35 -6 -6 -31 -26 -56 -45 -58 -45 -89 -71 -112 -92 -10 -10
-21 -18 -24 -18 -4 0 -23 -15 -43 -32 -20 -18 -50 -42 -65 -53 -16 -11 -38
-30 -49 -42 -11 -13 -25 -23 -29 -23 -5 0 -19 -11 -32 -25 -13 -14 -26 -25
-30 -25 -3 0 -16 -9 -28 -19 -49 -42 -67 -57 -104 -86 -21 -16 -46 -38 -56
-47 -10 -10 -22 -18 -27 -18 -5 0 -11 -3 -13 -7 -2 -7 -91 -80 -168 -140 -18
-14 -98 -79 -125 -101 -11 -10 -62 -50 -113 -90 -50 -41 -92 -77 -92 -80 1 -7
138 -119 168 -137 10 -5 19 -13 22 -16 5 -6 182 -150 265 -214 21 -16 165
-131 320 -255 155 -124 296 -236 314 -250 18 -14 38 -30 44 -35 7 -6 59 -48
116 -93 84 -67 105 -80 115 -69 6 7 42 38 81 68 38 30 79 61 90 71 17 14 162
129 190 151 10 7 178 141 227 180 15 12 39 31 53 41 14 11 34 27 45 35 10 9
35 30 56 46 21 17 76 60 123 98 47 37 96 76 107 87 12 11 27 20 33 20 6 0 11
4 11 8 0 4 24 26 53 47 28 22 57 44 63 50 6 5 26 21 44 35 18 14 44 35 59 48
14 12 41 32 58 45 18 12 35 27 37 32 2 6 -61 62 -141 125 -79 63 -149 120
-156 125 -7 6 -50 41 -97 78 -47 38 -94 76 -105 85 -11 9 -54 43 -95 76 -41
32 -81 66 -87 74 -7 9 -13 13 -13 9 0 -4 -17 9 -37 28 -20 19 -41 35 -45 35
-4 0 -18 11 -32 25 -14 14 -28 25 -31 25 -3 0 -16 10 -28 23 -12 12 -47 41
-77 64 -30 23 -68 52 -84 65 -31 25 -190 154 -244 197 -18 14 -42 34 -54 44
-12 9 -21 17 -22 17 -1 -1 -12 -10 -26 -21z"/>
<path d="M3068 8182 c-10 -2 -18 -8 -18 -13 0 -5 -7 -9 -16 -9 -8 0 -12 -4 -9
-10 3 -5 3 -10 -2 -10 -8 0 -23 -11 -132 -100 -37 -30 -82 -66 -101 -80 -18
-14 -45 -35 -59 -48 -14 -12 -56 -46 -92 -75 -187 -149 -463 -371 -486 -391
l-22 -20 42 -30 c23 -17 47 -35 53 -41 7 -5 26 -21 44 -35 18 -14 38 -31 45
-37 8 -7 16 -13 19 -13 6 0 52 -38 88 -72 10 -10 18 -15 18 -12 0 3 7 -2 16
-10 9 -9 32 -29 52 -44 21 -15 39 -29 42 -32 3 -3 67 -54 142 -113 75 -59 144
-114 152 -122 8 -8 19 -15 24 -15 6 0 12 -3 14 -8 2 -4 23 -23 48 -42 25 -19
52 -40 60 -47 8 -7 76 -60 150 -119 74 -58 137 -110 138 -115 2 -5 8 -9 14 -9
6 0 25 -12 42 -27 17 -16 49 -41 70 -58 21 -16 64 -50 96 -75 31 -25 69 -54
84 -65 15 -11 38 -29 50 -40 24 -21 60 -50 110 -88 16 -12 75 -58 130 -102 56
-44 113 -89 127 -100 36 -27 131 -102 149 -117 12 -11 126 -100 205 -162 131
-102 191 -151 197 -160 4 -6 8 -7 8 -2 0 6 6 3 13 -6 6 -8 57 -50 112 -93 55
-43 102 -81 105 -84 3 -3 41 -33 84 -66 43 -33 84 -64 90 -70 6 -6 29 -24 51
-40 22 -17 42 -32 45 -35 3 -3 48 -39 100 -80 52 -40 97 -77 98 -82 2 -4 8 -8
13 -8 6 0 21 -10 34 -22 13 -13 53 -45 89 -73 36 -27 66 -53 66 -57 0 -5 5 -8
11 -8 9 0 72 -49 133 -102 17 -16 21 -16 36 -3 9 8 22 15 28 15 7 0 12 4 12 8
0 4 31 32 69 61 38 29 79 60 90 69 25 22 115 93 184 145 16 12 45 37 65 54 20
18 40 33 44 33 4 0 13 7 21 15 8 8 68 56 133 107 66 51 124 97 131 103 7 5 18
15 25 20 7 6 27 21 44 35 17 14 46 36 64 50 19 14 63 49 97 78 35 29 63 50 63
47 0 -3 8 3 18 13 10 9 35 31 56 47 71 55 101 80 104 88 2 4 8 7 13 7 8 0 47
31 85 68 8 7 14 10 14 5 0 -4 4 -3 8 3 4 6 68 58 142 117 74 59 146 116 158
127 13 11 27 20 32 20 5 0 10 3 12 8 2 4 45 41 97 81 52 41 102 80 110 87 24
19 105 83 116 92 57 43 174 136 190 152 12 11 26 20 33 20 7 0 12 3 12 8 0 4
41 39 91 77 50 39 101 79 114 90 12 11 35 29 51 40 48 34 139 109 142 117 2 4
10 8 17 8 7 0 15 4 17 9 2 5 39 37 83 71 44 34 95 74 114 88 138 109 196 157
199 164 2 4 8 8 13 8 9 0 44 27 81 63 10 9 21 17 24 17 5 0 101 76 114 90 3 3
21 17 40 30 19 14 42 32 50 40 9 9 27 24 41 34 l24 17 -25 20 c-14 12 -36 31
-50 43 -14 12 -41 32 -60 46 -19 13 -39 29 -45 35 -5 7 -32 29 -60 51 -27 21
-56 45 -65 51 -8 7 -103 83 -210 169 -107 86 -207 167 -222 180 -15 13 -32 24
-38 24 -5 0 -10 4 -10 8 0 5 -19 22 -42 39 -24 17 -52 40 -64 51 -11 10 -31
25 -43 32 -24 12 -33 7 -94 -52 -10 -10 -21 -18 -25 -18 -4 0 -18 -10 -32 -23
-14 -12 -45 -38 -70 -57 -57 -44 -68 -53 -83 -65 -7 -6 -32 -26 -57 -45 -52
-41 -39 -30 -205 -162 -71 -56 -134 -106 -140 -110 -5 -4 -23 -19 -39 -33 -16
-14 -32 -25 -35 -25 -3 0 -22 -15 -42 -33 -19 -18 -60 -50 -90 -72 -30 -22
-60 -45 -67 -52 -7 -7 -95 -76 -195 -155 -100 -78 -184 -145 -187 -148 -3 -3
-23 -19 -45 -36 -22 -16 -45 -33 -51 -39 -22 -19 -49 -40 -139 -109 -49 -38
-94 -74 -100 -80 -5 -6 -44 -37 -85 -68 -42 -32 -85 -66 -97 -78 -12 -11 -26
-20 -32 -20 -5 0 -11 -3 -13 -8 -2 -6 -58 -52 -113 -95 -38 -29 -244 -193
-263 -208 -12 -10 -26 -19 -31 -19 -5 0 -11 -4 -13 -9 -3 -7 -188 -158 -214
-174 -6 -3 -20 2 -30 11 -10 10 -49 41 -85 69 -84 63 -212 165 -219 173 -3 3
-23 18 -45 35 -45 33 -50 37 -85 66 -14 12 -52 42 -85 67 -33 26 -67 52 -75
59 -30 25 -238 189 -270 213 -18 14 -38 30 -44 35 -6 6 -32 26 -56 45 -25 19
-52 40 -60 47 -8 7 -76 59 -150 118 -74 58 -142 111 -150 118 -8 8 -58 47
-110 87 -52 41 -109 85 -126 99 -16 15 -45 37 -64 51 -36 27 -92 71 -100 80
-3 3 -23 18 -45 35 -21 16 -46 35 -55 43 -8 8 -55 45 -105 84 -150 117 -157
122 -179 141 -12 9 -59 47 -106 83 -47 37 -87 70 -90 74 -3 3 -12 11 -21 16
-9 5 -33 23 -54 39 -21 17 -61 48 -89 70 -28 23 -59 39 -68 37z"/>
<path d="M940 6471 c0 -5 -8 -12 -17 -15 -10 -3 -35 -22 -56 -41 -21 -19 -40
-35 -42 -35 -3 0 -15 -9 -27 -19 -57 -48 -218 -178 -248 -201 -18 -14 -38 -30
-44 -35 -6 -6 -78 -64 -161 -130 -82 -65 -151 -122 -153 -127 -2 -4 -10 -8
-18 -8 -8 0 -14 -4 -14 -8 0 -4 -19 -22 -42 -40 -24 -18 -60 -46 -80 -63 l-38
-31 38 -30 c20 -16 50 -39 65 -51 16 -12 34 -27 40 -32 7 -6 43 -35 82 -65 38
-30 77 -60 85 -67 8 -7 53 -42 100 -79 47 -36 87 -70 88 -75 2 -5 8 -9 14 -9
5 0 15 -6 22 -12 7 -7 28 -24 46 -38 45 -34 249 -195 278 -220 13 -10 37 -29
55 -42 18 -12 34 -25 37 -28 4 -4 119 -96 168 -135 7 -5 22 -18 33 -27 10 -10
21 -18 24 -18 4 0 203 -157 215 -170 3 -3 32 -25 65 -50 33 -25 62 -47 65 -50
5 -6 49 -41 96 -77 16 -12 68 -53 115 -90 47 -37 101 -80 120 -95 19 -14 44
-35 56 -45 12 -10 34 -27 49 -38 15 -11 41 -31 58 -45 36 -29 42 -34 122 -97
33 -26 76 -59 94 -73 18 -14 38 -30 44 -35 6 -6 31 -26 56 -45 25 -19 47 -38
48 -42 2 -5 10 -8 17 -8 7 0 15 -4 17 -8 2 -7 96 -83 247 -201 29 -23 50 -39
86 -69 15 -12 148 -116 160 -124 6 -4 31 -25 56 -45 25 -21 60 -49 79 -63 18
-14 42 -33 54 -42 34 -28 39 -32 81 -63 22 -17 46 -36 53 -42 7 -7 41 -34 75
-60 34 -26 67 -52 73 -58 6 -5 26 -22 45 -36 259 -203 254 -199 292 -231 18
-15 40 -30 50 -34 9 -3 17 -9 17 -12 0 -4 38 -36 85 -72 47 -36 85 -68 85 -72
0 -5 6 -8 14 -8 8 0 16 -3 18 -8 2 -4 35 -32 73 -62 39 -30 72 -57 75 -60 3
-3 34 -27 70 -55 67 -51 82 -63 103 -80 43 -35 112 -90 172 -136 39 -29 75
-58 81 -64 7 -6 44 -36 83 -66 39 -29 71 -57 71 -61 0 -5 4 -8 10 -8 5 0 18
-6 27 -14 10 -8 68 -54 128 -102 61 -49 112 -92 113 -96 2 -4 10 -8 17 -8 7 0
15 -3 17 -8 2 -4 46 -41 98 -81 52 -41 97 -77 100 -81 3 -3 21 -17 40 -30 19
-13 41 -30 48 -37 7 -7 41 -34 75 -60 34 -26 67 -52 73 -58 6 -5 23 -19 38
-30 16 -11 33 -25 40 -30 6 -6 30 -25 53 -43 l41 -32 54 42 c29 23 64 52 77
65 13 13 30 23 37 23 8 0 14 3 14 8 0 4 32 32 71 62 39 30 110 86 157 123 48
38 100 79 115 90 15 12 36 29 46 37 19 16 189 149 415 328 72 56 138 108 146
115 8 7 44 35 80 62 74 56 105 82 132 107 10 10 18 15 18 10 0 -4 4 -2 8 4 4
5 41 37 82 69 41 33 80 63 85 68 22 18 192 150 218 170 16 12 34 27 40 32 7 6
32 26 57 45 25 19 50 39 56 45 6 5 26 21 44 35 40 30 237 185 265 208 11 10
61 48 110 87 50 38 95 74 102 80 7 5 25 20 40 32 15 12 60 47 98 78 39 30 81
64 95 75 14 11 52 41 86 67 33 26 75 59 93 73 18 14 41 32 51 40 10 8 31 25
47 37 87 69 211 167 228 181 11 9 40 33 65 52 25 19 51 40 58 47 7 7 17 13 20
13 4 0 18 10 32 23 14 12 72 59 130 105 58 46 112 88 120 95 8 7 35 28 60 47
25 19 59 46 76 60 17 14 48 39 69 55 21 17 44 36 51 43 8 7 14 11 14 8 0 -3
17 11 38 29 20 19 40 35 43 35 3 0 19 11 35 25 16 14 34 29 39 33 27 20 101
77 105 82 3 3 48 39 100 80 52 41 97 77 100 80 3 3 23 18 45 35 22 16 45 34
52 40 19 16 62 51 154 123 47 37 103 81 124 97 21 17 97 76 169 133 72 57 146
115 165 130 19 15 40 33 47 40 7 6 17 12 22 12 6 0 12 7 16 15 3 8 12 15 20
15 8 0 16 4 18 9 3 7 57 52 155 128 15 12 38 30 50 40 12 10 45 36 73 58 29
22 64 50 78 63 14 12 28 22 31 22 3 0 24 16 45 36 l40 35 -27 22 c-14 12 -39
32 -54 44 -15 12 -40 32 -55 45 -14 13 -39 32 -54 43 -34 25 -200 159 -236
191 -16 13 -28 22 -28 19 0 -2 -13 8 -28 23 -16 15 -43 38 -62 52 -46 34 -254
202 -260 209 -3 3 -23 19 -45 36 -22 16 -46 35 -53 42 -36 35 -46 33 -119 -25
-39 -32 -118 -93 -174 -137 -57 -44 -110 -87 -119 -95 -9 -8 -51 -42 -95 -75
-44 -33 -90 -70 -104 -82 -13 -13 -27 -23 -30 -23 -3 0 -20 -13 -37 -28 -17
-15 -46 -38 -64 -52 -18 -14 -94 -73 -169 -133 -75 -59 -169 -133 -209 -165
-41 -31 -79 -62 -85 -67 -7 -6 -64 -50 -127 -99 -63 -50 -129 -101 -146 -115
-17 -14 -46 -37 -64 -51 -18 -14 -49 -38 -69 -55 -21 -16 -53 -42 -72 -57
-111 -87 -259 -204 -289 -228 -19 -15 -116 -92 -215 -169 -99 -78 -190 -150
-201 -161 -12 -11 -26 -20 -32 -20 -6 0 -12 -4 -14 -9 -4 -12 -169 -141 -180
-141 -5 0 -6 -4 -3 -10 3 -6 -1 -10 -9 -10 -9 0 -16 -4 -16 -10 0 -5 -5 -10
-10 -10 -6 0 -22 -10 -35 -22 -13 -13 -42 -36 -64 -52 -23 -17 -41 -33 -41
-38 0 -4 -5 -8 -12 -8 -6 0 -18 -7 -27 -15 -17 -16 -125 -103 -180 -145 -18
-14 -45 -35 -58 -47 -14 -13 -29 -23 -32 -23 -3 0 -26 -18 -50 -40 -25 -22
-47 -40 -50 -40 -3 0 -22 -14 -41 -30 -19 -17 -46 -40 -60 -50 -145 -114 -193
-150 -203 -150 -5 0 -8 -3 -4 -6 5 -6 -20 -26 -142 -118 -14 -11 -40 -31 -57
-45 -16 -15 -45 -37 -63 -51 -19 -14 -42 -32 -52 -40 -10 -8 -33 -26 -51 -40
-18 -14 -40 -33 -50 -42 -10 -10 -18 -15 -18 -10 0 4 -6 0 -13 -8 -7 -8 -37
-34 -67 -57 -30 -23 -65 -52 -77 -63 -12 -11 -25 -20 -28 -20 -3 0 -16 -9 -28
-21 -12 -11 -35 -30 -50 -42 -34 -26 -178 -140 -375 -295 l-143 -113 -57 42
c-31 24 -63 49 -72 56 -8 7 -76 60 -150 118 -74 59 -142 112 -150 118 -208
166 -266 212 -268 219 -2 4 -8 8 -13 8 -5 0 -22 11 -37 24 -15 14 -30 25 -34
26 -4 0 -18 10 -30 23 -13 12 -40 36 -62 52 -21 17 -46 37 -56 45 -10 8 -65
51 -122 95 -56 44 -108 84 -114 90 -6 5 -26 22 -45 36 -67 52 -254 199 -279
219 -14 11 -41 32 -60 47 -19 15 -37 30 -40 33 -3 3 -23 18 -45 35 -21 16 -47
36 -56 45 -9 8 -35 28 -58 44 -23 17 -41 33 -41 38 0 4 -4 8 -9 8 -11 0 -314
239 -319 252 -2 4 -10 8 -17 8 -7 0 -15 4 -17 8 -1 5 -25 26 -52 46 -80 61
-141 111 -144 119 -2 4 -10 7 -17 7 -7 0 -15 4 -17 8 -1 5 -34 33 -73 63 -38
29 -76 59 -83 66 -7 7 -41 34 -75 60 -34 26 -67 52 -74 58 -6 5 -24 20 -40 32
-15 11 -80 62 -143 112 -135 107 -133 106 -275 217 -60 47 -121 96 -135 108
-14 12 -41 32 -60 46 -19 13 -37 27 -40 30 -3 3 -34 28 -70 55 -36 28 -69 55
-75 61 -5 6 -28 24 -50 40 -22 16 -45 34 -51 39 -6 6 -25 21 -43 35 -18 14
-38 30 -44 35 -7 6 -39 30 -72 55 -32 25 -67 52 -76 60 -10 8 -32 26 -49 40
-17 14 -40 33 -51 43 -10 9 -23 17 -28 17 -5 0 -11 3 -13 8 -1 4 -23 23 -48
42 -25 19 -52 40 -60 47 -8 7 -44 35 -80 63 -36 28 -77 62 -93 75 -15 14 -29
25 -32 25 -4 0 -13 7 -65 50 -9 8 -32 26 -50 40 -18 14 -38 30 -44 35 -6 6
-38 30 -71 55 -33 25 -71 55 -85 68 -33 31 -60 45 -60 33z"/>
</g>
</svg>
